<mxfile host="app.diagrams.net" modified="2022-02-27T19:40:28.703Z" agent="5.0 (Windows NT 10.0; Win64; x64) AppleWebKit/537.36 (KHTML, like Gecko) Chrome/98.0.4758.102 Safari/537.36" etag="NoDjAako-ZUT8cnQO7k8" version="16.6.1" type="github">
  <diagram id="C5RBs43oDa-KdzZeNtuy" name="Page-1">
    <mxGraphModel dx="1422" dy="762" grid="1" gridSize="10" guides="1" tooltips="1" connect="1" arrows="1" fold="1" page="1" pageScale="1" pageWidth="827" pageHeight="1169" math="0" shadow="0">
      <root>
        <mxCell id="WIyWlLk6GJQsqaUBKTNV-0" />
        <mxCell id="WIyWlLk6GJQsqaUBKTNV-1" parent="WIyWlLk6GJQsqaUBKTNV-0" />
        <mxCell id="Rt2nQSi5um51-MlJH9z8-1" value="Clientes" style="swimlane;" vertex="1" parent="WIyWlLk6GJQsqaUBKTNV-1">
          <mxGeometry x="90" y="80" width="200" height="130" as="geometry" />
        </mxCell>
        <mxCell id="Rt2nQSi5um51-MlJH9z8-4" value="nombre(string)&lt;br&gt;cod_postal(num)&lt;br&gt;edad(num)" style="text;html=1;align=left;verticalAlign=middle;resizable=0;points=[];autosize=1;strokeColor=none;fillColor=none;" vertex="1" parent="Rt2nQSi5um51-MlJH9z8-1">
          <mxGeometry y="30" width="100" height="50" as="geometry" />
        </mxCell>
        <mxCell id="Rt2nQSi5um51-MlJH9z8-7" value="" style="endArrow=none;html=1;rounded=0;" edge="1" parent="Rt2nQSi5um51-MlJH9z8-1">
          <mxGeometry width="50" height="50" relative="1" as="geometry">
            <mxPoint y="90" as="sourcePoint" />
            <mxPoint x="200" y="90" as="targetPoint" />
            <Array as="points">
              <mxPoint x="100" y="90" />
            </Array>
          </mxGeometry>
        </mxCell>
        <mxCell id="Rt2nQSi5um51-MlJH9z8-8" value="&lt;div style=&quot;text-align: left&quot;&gt;&lt;span&gt;clientes_cod(funcion)&lt;/span&gt;&lt;/div&gt;&lt;div style=&quot;text-align: left&quot;&gt;&lt;span&gt;clientes_cod_edad(funcion)&lt;/span&gt;&lt;/div&gt;" style="text;html=1;align=center;verticalAlign=middle;resizable=0;points=[];autosize=1;strokeColor=none;fillColor=none;" vertex="1" parent="Rt2nQSi5um51-MlJH9z8-1">
          <mxGeometry y="95" width="160" height="30" as="geometry" />
        </mxCell>
        <mxCell id="Rt2nQSi5um51-MlJH9z8-2" value="Ejercicio tabla ordenada" style="rounded=0;whiteSpace=wrap;html=1;" vertex="1" parent="WIyWlLk6GJQsqaUBKTNV-1">
          <mxGeometry x="90" y="20" width="200" height="60" as="geometry" />
        </mxCell>
        <mxCell id="Rt2nQSi5um51-MlJH9z8-9" value="Frase" style="swimlane;" vertex="1" parent="WIyWlLk6GJQsqaUBKTNV-1">
          <mxGeometry x="430" y="80" width="200" height="170" as="geometry" />
        </mxCell>
        <mxCell id="Rt2nQSi5um51-MlJH9z8-10" value="longitud(num)&lt;br&gt;caracteres(string)" style="text;html=1;align=left;verticalAlign=middle;resizable=0;points=[];autosize=1;strokeColor=none;fillColor=none;" vertex="1" parent="Rt2nQSi5um51-MlJH9z8-9">
          <mxGeometry y="40" width="110" height="30" as="geometry" />
        </mxCell>
        <mxCell id="Rt2nQSi5um51-MlJH9z8-11" value="" style="endArrow=none;html=1;rounded=0;" edge="1" parent="Rt2nQSi5um51-MlJH9z8-9">
          <mxGeometry width="50" height="50" relative="1" as="geometry">
            <mxPoint y="90" as="sourcePoint" />
            <mxPoint x="200" y="90" as="targetPoint" />
            <Array as="points">
              <mxPoint x="100" y="90" />
            </Array>
          </mxGeometry>
        </mxCell>
        <mxCell id="Rt2nQSi5um51-MlJH9z8-12" value="&lt;div style=&quot;text-align: left&quot;&gt;hazcadena(funcion)&lt;/div&gt;&lt;div style=&quot;text-align: left&quot;&gt;sustituir_acentos(funcion)&lt;/div&gt;&lt;div style=&quot;text-align: left&quot;&gt;preparar_frase(funcion)&lt;/div&gt;&lt;div style=&quot;text-align: left&quot;&gt;es_polindromo(funcion)&lt;/div&gt;" style="text;html=1;align=center;verticalAlign=middle;resizable=0;points=[];autosize=1;strokeColor=none;fillColor=none;" vertex="1" parent="Rt2nQSi5um51-MlJH9z8-9">
          <mxGeometry y="100" width="150" height="60" as="geometry" />
        </mxCell>
        <mxCell id="Rt2nQSi5um51-MlJH9z8-13" value="Ejercicio palÃ­ndromo" style="rounded=0;whiteSpace=wrap;html=1;" vertex="1" parent="WIyWlLk6GJQsqaUBKTNV-1">
          <mxGeometry x="430" y="20" width="200" height="60" as="geometry" />
        </mxCell>
        <mxCell id="Rt2nQSi5um51-MlJH9z8-14" value="Bandera" style="swimlane;" vertex="1" parent="WIyWlLk6GJQsqaUBKTNV-1">
          <mxGeometry x="80" y="350" width="200" height="130" as="geometry" />
        </mxCell>
        <mxCell id="Rt2nQSi5um51-MlJH9z8-15" value="longitud(num)&lt;br&gt;elementos(string)" style="text;html=1;align=left;verticalAlign=middle;resizable=0;points=[];autosize=1;strokeColor=none;fillColor=none;" vertex="1" parent="Rt2nQSi5um51-MlJH9z8-14">
          <mxGeometry y="40" width="110" height="30" as="geometry" />
        </mxCell>
        <mxCell id="Rt2nQSi5um51-MlJH9z8-16" value="" style="endArrow=none;html=1;rounded=0;" edge="1" parent="Rt2nQSi5um51-MlJH9z8-14">
          <mxGeometry width="50" height="50" relative="1" as="geometry">
            <mxPoint y="90" as="sourcePoint" />
            <mxPoint x="200" y="90" as="targetPoint" />
            <Array as="points">
              <mxPoint x="100" y="90" />
            </Array>
          </mxGeometry>
        </mxCell>
        <mxCell id="Rt2nQSi5um51-MlJH9z8-17" value="&lt;div style=&quot;text-align: left&quot;&gt;crear_bandera(funcion)&lt;/div&gt;&lt;div style=&quot;text-align: left&quot;&gt;odenar_colores(funcion)&lt;/div&gt;" style="text;html=1;align=center;verticalAlign=middle;resizable=0;points=[];autosize=1;strokeColor=none;fillColor=none;" vertex="1" parent="Rt2nQSi5um51-MlJH9z8-14">
          <mxGeometry x="10" y="95" width="140" height="30" as="geometry" />
        </mxCell>
        <mxCell id="Rt2nQSi5um51-MlJH9z8-18" value="Ejercicio bandera dijkstra" style="rounded=0;whiteSpace=wrap;html=1;" vertex="1" parent="WIyWlLk6GJQsqaUBKTNV-1">
          <mxGeometry x="80" y="290" width="200" height="60" as="geometry" />
        </mxCell>
      </root>
    </mxGraphModel>
  </diagram>
</mxfile>
